<?xml version="1.0" standalone="no"?>
<!DOCTYPE svg PUBLIC "-//W3C//DTD SVG 20010904//EN"
 "http://www.w3.org/TR/2001/REC-SVG-20010904/DTD/svg10.dtd">
<svg version="1.0" xmlns="http://www.w3.org/2000/svg"
 width="650.000000pt" height="650.000000pt" viewBox="0 0 650.000000 650.000000"
 preserveAspectRatio="xMidYMid meet">
<metadata>
Created by potrace 1.11, written by Peter Selinger 2001-2013
</metadata>
<g transform="translate(0.000000,650.000000) scale(0.100000,-0.100000)"
fill="#000000" stroke="none">
<path d="M1860 4789 c-361 -30 -610 -94 -804 -208 -166 -98 -283 -219 -361
-375 -56 -114 -75 -187 -75 -296 1 -229 100 -424 254 -500 168 -83 346 -52
441 78 43 59 65 127 65 207 0 119 -81 232 -197 275 -44 17 -78 20 -194 20
-211 0 -248 27 -220 162 35 165 163 309 367 411 184 93 506 161 884 187 84 6
587 10 1195 9 l1050 0 -80 -22 c-218 -60 -410 -203 -547 -405 -159 -236 -236
-535 -313 -1216 -51 -453 -108 -694 -215 -907 -100 -198 -280 -351 -480 -405
-88 -24 -262 -24 -350 0 -182 50 -345 179 -424 337 -40 80 -47 140 -21 189 27
52 64 63 230 70 132 5 157 9 205 31 76 36 115 71 146 134 23 48 26 64 23 137
-5 97 -35 171 -99 237 -68 70 -110 86 -225 86 -94 0 -105 -2 -168 -34 -172
-84 -266 -254 -267 -477 0 -211 124 -470 286 -597 117 -93 305 -173 474 -203
507 -89 1114 95 1455 441 247 250 348 499 446 1098 l22 137 226 0 c576 0 850
80 1086 315 136 136 193 256 202 430 6 123 -11 207 -64 308 -92 175 -272 301
-491 343 -62 12 -340 14 -1715 13 -903 -1 -1689 -6 -1747 -10z m2759 -58 c156
-80 249 -377 211 -677 -43 -342 -208 -591 -412 -620 -27 -3 -48 -2 -48 2 -2
32 196 1314 203 1314 4 0 25 -9 46 -19z"/>
</g>
</svg>
